# xmcd
#
# Track frame offsets:
# 150
# 16920
# 38345
# 55652
# 73010
# 90540
# 108415
# 127617
# 143582
# 163900
#
# Disc length: 2390 seconds
#
# Revision: 0
# Processed by: cddbd v1.5.1PL0 Copyright (c) Steve Scherf et al.
# Submitted via: Axialis_AX_CDPlayer 2.6
#
DISCID=7209540a
DTITLE=Marty Joe Kupersmith - It'll Come To You
DYEAR=1900
DGENRE=
TTITLE0=(There Must Be) Trouble On The Line
TTITLE1=Put It Back The Way It Was
TTITLE2=That's How I See You
TTITLE3=It'll Come To You
TTITLE4=I Don't Wanna See You Anymore
TTITLE5=You Make It Hard For Me
TTITLE6=A Cry In The Night
TTITLE7=Vanessa
TTITLE8=Naked Love
TTITLE9=No Rock and Roll
EXTD=
EXTT0=
EXTT1=
EXTT2=
EXTT3=
EXTT4=
EXTT5=
EXTT6=
EXTT7=
EXTT8=
EXTT9=
PLAYORDER=
